<svg version="1.1" viewBox="0.0 0.0 960.0 768.0" fill="none" stroke="none" stroke-linecap="square" stroke-miterlimit="10" xmlns:xlink="http://www.w3.org/1999/xlink" xmlns="http://www.w3.org/2000/svg"><clipPath id="p.0"><path d="m0 0l960.0 0l0 768.0l-960.0 0l0 -768.0z" clip-rule="nonzero"/></clipPath><g clip-path="url(#p.0)"><path fill="#000000" fill-opacity="0.0" d="m0 0l960.0 0l0 768.0l-960.0 0z" fill-rule="evenodd"/><path fill="#f1c232" d="m5.9842095 285.92612l0 0c0 -35.233154 28.562117 -63.795273 63.795277 -63.795273l0 0c16.919556 0 33.146133 6.7212677 45.11007 18.685211c11.963936 11.963928 18.685211 28.190506 18.685211 45.11006l0 0c0 35.233154 -28.562126 63.795288 -63.79528 63.795288l0 0c-35.233162 0 -63.795277 -28.562134 -63.795277 -63.795288z" fill-rule="evenodd"/><path fill="#38761d" d="m135.34914 754.1715l690.2625 0l79.98749 -172.8125l-105.662476 94.80005l16.787476 -114.55005l-63.19995 117.51251l-2.9625244 -121.46246l-24.6875 93.8125l-42.462524 -77.025024l-0.9874878 115.537476l-34.5625 -101.71246l-15.799988 91.83746l-41.474976 -115.537476l-21.725037 126.400024l-23.490051 -99.34357l-53.325012 129.85754l-38.722412 -144.07648l-46.202576 112.4765l-9.097443 -101.61401l-33.57498 105.662476l-1.9750061 -94.79999l-31.600006 51.349976l-28.637512 -98.75l-20.737488 158.98755l-31.600006 -147.13751l-13.824997 122.45001l-27.649994 -108.625l-19.75 105.662476l-79.9875 -129.36249l21.72499 115.537476l-74.06249 -52.337463z" fill-rule="evenodd"/><path fill="#f1c232" d="m826.42523 285.92612l0 0c0 -35.233154 28.562134 -63.795273 63.795288 -63.795273l0 0c16.919556 0 33.14612 6.7212677 45.110046 18.685211c11.963928 11.963928 18.685242 28.190506 18.685242 45.11006l0 0c0 35.233154 -28.562134 63.795288 -63.795288 63.795288l0 0c-35.233154 0 -63.795288 -28.562134 -63.795288 -63.795288z" fill-rule="evenodd"/><path fill="#f1c232" d="m414.8438 77.623665l0 0c0 -35.233162 28.562134 -63.79528 63.795288 -63.79528l0 0c16.919556 0 33.14615 6.7212687 45.110046 18.685204c11.963928 11.963936 18.685242 28.190514 18.685242 45.110077l0 0c0 35.233154 -28.562134 63.795265 -63.795288 63.795265l0 0c-35.233154 0 -63.795288 -28.56211 -63.795288 -63.795265z" fill-rule="evenodd"/><path fill="#f1c232" d="m146.80034 710.51196l666.3629 -0.4821167l74.347595 -395.45874l-235.5304 137.7446l-172.96802 -366.3003l-174.50757 368.9777l-234.76582 -146.74094z" fill-rule="evenodd"/><path fill="#38761d" d="m825.61127 754.17163l-690.2625 0l-79.9875 -172.8125l105.662506 94.79999l-16.787506 -114.54999l63.200012 117.51251l2.962494 -121.462524l24.6875 93.8125l42.46251 -77.025024l0.9874878 115.53754l34.5625 -101.712524l15.799988 91.837524l41.475006 -115.53754l21.725006 126.400024l44.46341 -153.30872l25.85904 147.28522l45.215057 -107.539l15.800018 111.587524l39.5 -100.72504l33.57495 105.66254l1.9750366 -94.80005l39.52588 96.92273l20.711609 -144.3227l20.737488 158.98749l31.600037 -147.13751l13.824951 122.45001l27.650024 -108.625l19.75 105.662476l79.98749 -129.36249l-21.724976 115.53754l74.0625 -52.337524z" fill-rule="evenodd"/></g></svg>