<svg version="1.1" viewBox="0.0 0.0 2640.0 768.0" fill="none" stroke="none" stroke-linecap="square" stroke-miterlimit="10" xmlns:xlink="http://www.w3.org/1999/xlink" xmlns="http://www.w3.org/2000/svg"><clipPath id="p.0"><path d="m0 0l2640.0 0l0 768.0l-2640.0 0l0 -768.0z" clip-rule="nonzero"/></clipPath><g clip-path="url(#p.0)"><path fill="#000000" fill-opacity="0.0" d="m0 0l2640.0 0l0 768.0l-2640.0 0z" fill-rule="evenodd"/><path fill="#f1c232" d="m5.9842095 285.92612l0 0c0 -35.233154 28.562117 -63.795273 63.795277 -63.795273l0 0c16.919556 0 33.146133 6.7212677 45.11007 18.685211c11.963936 11.963928 18.685211 28.190506 18.685211 45.11006l0 0c0 35.233154 -28.562126 63.795288 -63.79528 63.795288l0 0c-35.233162 0 -63.795277 -28.562134 -63.795277 -63.795288z" fill-rule="evenodd"/><path fill="#38761d" d="m135.34914 754.1715l690.2625 0l79.98749 -172.8125l-105.662476 94.80005l16.787476 -114.55005l-63.19995 117.51251l-2.9625244 -121.46246l-24.6875 93.8125l-42.462524 -77.025024l-0.9874878 115.537476l-34.5625 -101.71246l-15.799988 91.83746l-41.474976 -115.537476l-21.725037 126.400024l-23.490051 -99.34357l-53.325012 129.85754l-38.722412 -144.07648l-46.202576 112.4765l-9.097443 -101.61401l-33.57498 105.662476l-1.9750061 -94.79999l-31.600006 51.349976l-28.637512 -98.75l-20.737488 158.98755l-31.600006 -147.13751l-13.824997 122.45001l-27.649994 -108.625l-19.75 105.662476l-79.9875 -129.36249l21.72499 115.537476l-74.06249 -52.337463z" fill-rule="evenodd"/><path fill="#f1c232" d="m826.42523 285.92612l0 0c0 -35.233154 28.562134 -63.795273 63.795288 -63.795273l0 0c16.919556 0 33.14612 6.7212677 45.110046 18.685211c11.963928 11.963928 18.685242 28.190506 18.685242 45.11006l0 0c0 35.233154 -28.562134 63.795288 -63.795288 63.795288l0 0c-35.233154 0 -63.795288 -28.562134 -63.795288 -63.795288z" fill-rule="evenodd"/><path fill="#f1c232" d="m414.8438 77.623665l0 0c0 -35.233162 28.562134 -63.79528 63.795288 -63.79528l0 0c16.919556 0 33.14615 6.7212687 45.110046 18.685204c11.963928 11.963936 18.685242 28.190514 18.685242 45.110077l0 0c0 35.233154 -28.562134 63.795265 -63.795288 63.795265l0 0c-35.233154 0 -63.795288 -28.56211 -63.795288 -63.795265z" fill-rule="evenodd"/><path fill="#f1c232" d="m146.80034 710.51196l666.3629 -0.4821167l74.347595 -395.45874l-235.5304 137.7446l-172.96802 -366.3003l-174.50757 368.9777l-234.76582 -146.74094z" fill-rule="evenodd"/><path fill="#38761d" d="m825.61127 754.17163l-690.2625 0l-79.9875 -172.8125l105.662506 94.79999l-16.787506 -114.54999l63.200012 117.51251l2.962494 -121.462524l24.6875 93.8125l42.46251 -77.025024l0.9874878 115.53754l34.5625 -101.712524l15.799988 91.837524l41.475006 -115.53754l21.725006 126.400024l44.46341 -153.30872l25.85904 147.28522l45.215057 -107.539l15.800018 111.587524l39.5 -100.72504l33.57495 105.66254l1.9750366 -94.80005l39.52588 96.92273l20.711609 -144.3227l20.737488 158.98749l31.600037 -147.13751l13.824951 122.45001l27.650024 -108.625l19.75 105.662476l79.98749 -129.36249l-21.724976 115.53754l74.0625 -52.337524z" fill-rule="evenodd"/><path fill="#000000" fill-opacity="0.0" d="m954.01575 315.48032l1855.6849 0l0 471.874l-1855.6849 0z" fill-rule="evenodd"/><path fill="#272727" d="m1054.297 503.6803q-3.921875 -6.34375 -9.25 -13.71875q-5.3125 -7.375 -11.578125 -14.75q-6.25 -7.375 -12.96875 -14.1875q-6.71875 -6.8125 -13.4375 -12.03125l0 54.6875l-29.109375 0l0 -129.35938l29.109375 0l0 48.90625q11.390625 -11.9375 22.859375 -24.90625q11.484375 -12.984375 21.375 -24.0l34.53125 0q-13.25 15.6875 -26.59375 30.25q-13.34375 14.546875 -28.09375 29.296875q15.5 12.875 29.953125 30.609375q14.46875 17.734375 27.734375 39.203125l-34.53125 0zm51.3291 -129.35938l29.109375 0l0 129.35938l-29.109375 0l0 -129.35938zm145.78027 129.35938q-12.515625 -22.21875 -27.078125 -43.859375q-14.546875 -21.65625 -30.984375 -40.875l0 84.734375l-28.734375 0l0 -129.35938l23.703125 0q6.15625 6.171875 13.625 15.125q7.46875 8.953125 15.203125 19.140625q7.75 10.171875 15.40625 21.09375q7.65625 10.90625 14.375 20.984375l0 -76.34375l28.921875 0l0 129.35938l-24.4375 0zm117.39343 -106.953125q-20.34375 0 -29.390625 11.296875q-9.046875 11.28125 -9.046875 30.890625q0 9.515625 2.234375 17.265625q2.234375 7.75 6.71875 13.34375q4.484375 5.59375 11.203125 8.671875q6.71875 3.078125 15.671875 3.078125q4.859375 0 8.3125 -0.171875q3.453125 -0.1875 6.0625 -0.75l0 -44.984375l29.125 0l0 64.015625q-5.234375 2.0625 -16.8125 4.390625q-11.5625 2.328125 -28.546875 2.328125q-14.5625 0 -26.421875 -4.46875q-11.84375 -4.484375 -20.25 -13.0625q-8.390625 -8.59375 -12.96875 -21.09375q-4.578125 -12.515625 -4.578125 -28.5625q0 -16.25 5.03125 -28.75q5.046875 -12.5 13.8125 -21.171875q8.78125 -8.6875 20.625 -13.171875q11.859375 -4.484375 25.3125 -4.484375q9.140625 0 16.515625 1.21875q7.375 1.21875 12.6875 2.8125q5.328125 1.578125 8.78125 3.265625q3.453125 1.671875 4.9375 2.59375l-8.390625 23.34375q-5.984375 -3.171875 -13.734375 -5.5q-7.734375 -2.34375 -16.890625 -2.34375zm90.15759 -36.21875q0.375 2.625 0.5625 5.421875q0.1875 2.796875 0.1875 4.109375q0 12.5 -4.484375 23.796875q-4.46875 11.296875 -11.0 19.125l-19.609375 -4.46875q3.546875 -8.03125 5.6875 -18.109375q2.15625 -10.078125 2.15625 -19.234375q0 -0.375 0 -1.578125q0 -1.21875 -0.09375 -2.796875q-0.09375 -1.59375 -0.1875 -3.265625q-0.09375 -1.6875 -0.28125 -3.0l27.0625 0zm54.686646 120.953125q6.171875 0 10.171875 -1.015625q4.015625 -1.03125 6.4375 -2.796875q2.4375 -1.78125 3.359375 -4.203125q0.9375 -2.4375 0.9375 -5.421875q0 -6.34375 -5.96875 -10.53125q-5.96875 -4.203125 -20.53125 -9.0625q-6.34375 -2.234375 -12.6875 -5.125q-6.34375 -2.90625 -11.390625 -7.28125q-5.03125 -4.390625 -8.21875 -10.640625q-3.171875 -6.265625 -3.171875 -15.21875q0 -8.953125 3.359375 -16.140625q3.359375 -7.1875 9.515625 -12.21875q6.171875 -5.046875 14.9375 -7.75q8.78125 -2.71875 19.796875 -2.71875q13.0625 0 22.578125 2.8125q9.515625 2.796875 15.6875 6.15625l-8.40625 22.953125q-5.40625 -2.796875 -12.046875 -4.9375q-6.625 -2.15625 -15.953125 -2.15625q-10.453125 0 -15.03125 2.890625q-4.5625 2.890625 -4.5625 8.875q0 3.546875 1.671875 5.96875q1.6875 2.421875 4.765625 4.390625q3.078125 1.953125 7.09375 3.546875q4.015625 1.578125 8.859375 3.265625q10.078125 3.734375 17.546875 7.375q7.46875 3.640625 12.40625 8.5q4.953125 4.84375 7.375 11.375q2.4375 6.53125 2.4375 15.859375q0 18.109375 -12.703125 28.09375q-12.6875 9.984375 -38.265625 9.984375q-8.578125 0 -15.484375 -1.03125q-6.90625 -1.015625 -12.234375 -2.5q-5.3125 -1.5 -9.140625 -3.171875q-3.828125 -1.6875 -6.4375 -3.1875l8.21875 -23.140625q5.78125 3.171875 14.265625 5.6875q8.5 2.515625 20.8125 2.515625z" fill-rule="nonzero"/><path fill="#272727" d="m1012.297 598.3209q3.359375 6.171875 7.734375 15.21875q4.390625 9.046875 9.140625 19.59375q4.765625 10.546875 9.4375 21.5625q4.671875 11.015625 8.78125 20.71875q4.09375 -9.703125 8.765625 -20.71875q4.671875 -11.015625 9.421875 -21.5625q4.765625 -10.546875 9.140625 -19.59375q4.390625 -9.046875 7.75 -15.21875l26.515625 0q1.859375 12.890625 3.4375 28.84375q1.59375 15.953125 2.8125 33.21875q1.21875 17.265625 2.234375 34.625q1.03125 17.359375 1.78125 32.671875l-28.375 0q-0.5625 -18.859375 -1.5 -41.0625q-0.921875 -22.21875 -2.796875 -44.796875q-3.359375 7.84375 -7.46875 17.359375q-4.09375 9.515625 -8.109375 19.046875q-4.015625 9.515625 -7.75 18.203125q-3.734375 8.671875 -6.34375 14.828125l-20.34375 0q-2.625 -6.15625 -6.359375 -14.828125q-3.71875 -8.6875 -7.734375 -18.203125q-4.015625 -9.53125 -8.125 -19.046875q-4.109375 -9.515625 -7.46875 -17.359375q-1.859375 22.578125 -2.796875 44.796875q-0.9375 22.203125 -1.484375 41.0625l-28.375 0q0.75 -15.3125 1.765625 -32.671875q1.03125 -17.359375 2.234375 -34.625q1.21875 -17.265625 2.796875 -33.21875q1.59375 -15.953125 3.46875 -28.84375l27.8125 0zm157.54004 64.59375q0 9.515625 2.328125 17.171875q2.328125 7.65625 6.71875 13.15625q4.390625 5.5 10.734375 8.5q6.34375 2.984375 14.5625 2.984375q8.015625 0 14.453125 -2.984375q6.453125 -3.0 10.828125 -8.5q4.390625 -5.5 6.71875 -13.15625q2.34375 -7.65625 2.34375 -17.171875q0 -9.53125 -2.34375 -17.265625q-2.328125 -7.75 -6.71875 -13.25q-4.375 -5.515625 -10.828125 -8.5q-6.4375 -2.984375 -14.453125 -2.984375q-8.21875 0 -14.5625 3.078125q-6.34375 3.078125 -10.734375 8.59375q-4.390625 5.5 -6.71875 13.25q-2.328125 7.734375 -2.328125 17.078125zm98.734375 0q0 16.609375 -4.953125 29.21875q-4.9375 12.59375 -13.53125 21.09375q-8.578125 8.484375 -20.4375 12.78125q-11.84375 4.28125 -25.46875 4.28125q-13.25 0 -25.015625 -4.28125q-11.765625 -4.296875 -20.546875 -12.78125q-8.765625 -8.5 -13.8125 -21.09375q-5.03125 -12.609375 -5.03125 -29.21875q0 -16.609375 5.21875 -29.203125q5.234375 -12.609375 14.09375 -21.1875q8.875 -8.59375 20.53125 -12.890625q11.671875 -4.296875 24.5625 -4.296875q13.25 0 25.0 4.296875q11.765625 4.296875 20.53125 12.890625q8.78125 8.578125 13.8125 21.1875q5.046875 12.59375 5.046875 29.203125zm109.20117 -50.78125q2.234375 7.65625 4.9375 17.28125q2.703125 9.609375 5.78125 19.875q3.09375 10.265625 6.265625 20.53125q3.171875 10.265625 6.15625 19.03125q2.421875 -9.515625 4.9375 -20.71875q2.53125 -11.203125 4.765625 -23.140625q2.234375 -11.953125 4.375 -23.796875q2.15625 -11.859375 4.03125 -22.875l30.234375 0q-6.53125 32.484375 -15.03125 65.90625q-8.484375 33.40625 -18.375 63.453125l-26.703125 0q-6.53125 -17.921875 -12.6875 -37.609375q-6.15625 -19.6875 -12.140625 -39.484375q-5.96875 19.796875 -11.9375 39.484375q-5.96875 19.6875 -12.5 37.609375l-26.703125 0q-9.890625 -30.046875 -18.390625 -63.453125q-8.484375 -33.421875 -15.015625 -65.90625l31.546875 0q1.859375 11.015625 4.09375 22.875q2.25 11.84375 4.671875 23.796875q2.4375 11.9375 4.953125 23.140625q2.515625 11.203125 5.125 20.71875q3.359375 -9.140625 6.53125 -19.40625q3.1875 -10.265625 6.171875 -20.53125q2.984375 -10.265625 5.5 -19.78125q2.515625 -9.53125 4.578125 -17.0l24.828125 0zm90.1532 -13.8125l29.109375 0l0 129.35938l-29.109375 0l0 -129.35938zm145.78027 129.35938q-12.515625 -22.21875 -27.078125 -43.859375q-14.546875 -21.65625 -30.984375 -40.875l0 84.734375l-28.734375 0l0 -129.35938l23.703125 0q6.15625 6.171875 13.625 15.125q7.46875 8.953125 15.203125 19.140625q7.75 10.171875 15.40625 21.09375q7.65625 10.90625 14.375 20.984375l0 -76.34375l28.921875 0l0 129.35938l-24.4375 0zm117.39343 -106.953125q-20.34375 0 -29.390625 11.296875q-9.046875 11.28125 -9.046875 30.890625q0 9.515625 2.234375 17.265625q2.234375 7.75 6.71875 13.34375q4.484375 5.59375 11.203125 8.671875q6.71875 3.078125 15.671875 3.078125q4.859375 0 8.3125 -0.171875q3.453125 -0.1875 6.0625 -0.75l0 -44.984375l29.125 0l0 64.015625q-5.234375 2.0625 -16.8125 4.390625q-11.5625 2.328125 -28.546875 2.328125q-14.5625 0 -26.421875 -4.46875q-11.84375 -4.484375 -20.25 -13.0625q-8.390625 -8.59375 -12.96875 -21.09375q-4.578125 -12.515625 -4.578125 -28.5625q0 -16.25 5.03125 -28.75q5.046875 -12.5 13.8125 -21.171875q8.78125 -8.6875 20.625 -13.171875q11.859375 -4.484375 25.3125 -4.484375q9.140625 0 16.515625 1.21875q7.375 1.21875 12.6875 2.8125q5.328125 1.578125 8.78125 3.265625q3.453125 1.671875 4.9375 2.59375l-8.390625 23.34375q-5.984375 -3.171875 -13.734375 -5.5q-7.734375 -2.34375 -16.890625 -2.34375zm148.01758 84.734375q6.171875 0 10.171875 -1.015625q4.015625 -1.03125 6.4375 -2.796875q2.4375 -1.78125 3.359375 -4.203125q0.9375 -2.4375 0.9375 -5.421875q0 -6.34375 -5.96875 -10.53125q-5.96875 -4.203125 -20.53125 -9.0625q-6.34375 -2.234375 -12.6875 -5.125q-6.34375 -2.90625 -11.390625 -7.28125q-5.03125 -4.390625 -8.21875 -10.640625q-3.171875 -6.265625 -3.171875 -15.21875q0 -8.953125 3.359375 -16.140625q3.359375 -7.1875 9.515625 -12.21875q6.171875 -5.046875 14.9375 -7.75q8.78125 -2.71875 19.796875 -2.71875q13.0625 0 22.578125 2.8125q9.515625 2.796875 15.6875 6.15625l-8.40625 22.953125q-5.40625 -2.796875 -12.046875 -4.9375q-6.625 -2.15625 -15.953125 -2.15625q-10.453125 0 -15.03125 2.890625q-4.5625 2.890625 -4.5625 8.875q0 3.546875 1.671875 5.96875q1.6875 2.421875 4.765625 4.390625q3.078125 1.953125 7.09375 3.546875q4.015625 1.578125 8.859375 3.265625q10.078125 3.734375 17.546875 7.375q7.46875 3.640625 12.40625 8.5q4.953125 4.84375 7.375 11.375q2.4375 6.53125 2.4375 15.859375q0 18.109375 -12.703125 28.09375q-12.6875 9.984375 -38.265625 9.984375q-8.578125 0 -15.484375 -1.03125q-6.90625 -1.015625 -12.234375 -2.5q-5.3125 -1.5 -9.140625 -3.171875q-3.828125 -1.6875 -6.4375 -3.1875l8.21875 -23.140625q5.78125 3.171875 14.265625 5.6875q8.5 2.515625 20.8125 2.515625zm73.368286 22.21875l0 -129.35938l87.34375 0l0 24.453125l-58.234375 0l0 25.390625l51.703125 0l0 23.890625l-51.703125 0l0 31.171875l62.53125 0l0 24.453125l-91.640625 0zm151.0044 -130.84375q29.109375 0 44.59375 10.359375q15.5 10.359375 15.5 32.203125q0 13.625 -6.25 22.125q-6.25 8.484375 -18.015625 13.328125q3.921875 4.859375 8.21875 11.109375q4.296875 6.25 8.484375 13.0625q4.203125 6.8125 8.125 14.1875q3.921875 7.375 7.28125 14.46875l-32.65625 0q-3.546875 -6.34375 -7.1875 -12.875q-3.640625 -6.53125 -7.46875 -12.6875q-3.828125 -6.171875 -7.5625 -11.671875q-3.734375 -5.515625 -7.46875 -9.984375l-14.375 0l0 47.21875l-29.109375 0l0 -127.484375q9.515625 -1.875 19.6875 -2.609375q10.171875 -0.75 18.203125 -0.75zm1.671875 24.828125q-3.171875 0 -5.6875 0.1875q-2.515625 0.1875 -4.765625 0.375l0 35.078125l8.21875 0q16.421875 0 23.515625 -4.09375q7.09375 -4.109375 7.09375 -14.0q0 -9.53125 -7.1875 -13.53125q-7.1875 -4.015625 -21.1875 -4.015625zm120.59033 106.015625q-7.65625 -16.234375 -15.125 -33.78125q-7.46875 -17.546875 -14.1875 -34.71875q-6.71875 -17.171875 -12.421875 -32.84375q-5.6875 -15.6875 -9.796875 -28.015625l32.109375 0q3.734375 11.203125 8.125 24.1875q4.390625 12.96875 8.953125 25.84375q4.578125 12.875 8.859375 24.640625q4.296875 11.75 8.03125 20.34375q3.546875 -8.59375 7.9375 -20.34375q4.390625 -11.765625 8.953125 -24.640625q4.578125 -12.875 8.96875 -25.84375q4.390625 -12.984375 8.125 -24.1875l30.984375 0q-4.296875 12.328125 -9.90625 28.015625q-5.59375 15.671875 -12.3125 32.84375q-6.71875 17.171875 -14.1875 34.71875q-7.46875 17.546875 -15.125 33.78125l-27.984375 0zm96.312744 -129.35938l29.109375 0l0 129.35938l-29.109375 0l0 -129.35938zm117.96777 131.96875q-31.546875 0 -48.078125 -17.546875q-16.515625 -17.546875 -16.515625 -49.828125q0 -16.0625 5.03125 -28.65625q5.046875 -12.59375 13.8125 -21.265625q8.78125 -8.6875 20.90625 -13.171875q12.140625 -4.484375 26.328125 -4.484375q8.21875 0 14.9375 1.21875q6.71875 1.21875 11.75 2.8125q5.046875 1.578125 8.40625 3.265625q3.359375 1.671875 4.859375 2.59375l-8.40625 23.53125q-5.96875 -3.171875 -13.90625 -5.40625q-7.9375 -2.25 -18.015625 -2.25q-6.71875 0 -13.15625 2.25q-6.4375 2.234375 -11.390625 7.1875q-4.9375 4.9375 -7.921875 12.78125q-2.984375 7.828125 -2.984375 19.03125q0 8.953125 1.953125 16.703125q1.953125 7.75 6.34375 13.359375q4.390625 5.59375 11.484375 8.859375q7.09375 3.265625 17.171875 3.265625q6.34375 0 11.375 -0.75q5.046875 -0.75 8.96875 -1.765625q3.921875 -1.03125 6.90625 -2.34375q2.984375 -1.3125 5.40625 -2.421875l8.03125 23.328125q-6.15625 3.734375 -17.359375 6.71875q-11.203125 2.984375 -25.9375 2.984375zm61.96875 -2.609375l0 -129.35938l87.34375 0l0 24.453125l-58.234375 0l0 25.390625l51.703125 0l0 23.890625l-51.703125 0l0 31.171875l62.53125 0l0 24.453125l-91.640625 0z" fill-rule="nonzero"/></g></svg>